<mxfile host="65bd71144e">
    <diagram id="Vc_133IIU8FQ7RstDZ33" name="Page-1">
        <mxGraphModel dx="1160" dy="489" grid="1" gridSize="10" guides="1" tooltips="1" connect="1" arrows="1" fold="1" page="1" pageScale="1" pageWidth="850" pageHeight="1100" math="0" shadow="0">
            <root>
                <mxCell id="0"/>
                <mxCell id="1" parent="0"/>
                <mxCell id="2" value="Youcode (&lt;u&gt;id_ecole,&lt;/u&gt; nom, location)" style="text;html=1;align=center;verticalAlign=middle;resizable=0;points=[];autosize=1;strokeColor=none;fillColor=none;" vertex="1" parent="1">
                    <mxGeometry x="-840" y="70" width="200" height="30" as="geometry"/>
                </mxCell>
                <mxCell id="3" value="bde(&lt;u&gt;id_bde,&lt;/u&gt; nom_bureau, date_creation, nombre_membre)" style="text;html=1;align=center;verticalAlign=middle;resizable=0;points=[];autosize=1;strokeColor=none;fillColor=none;" vertex="1" parent="1">
                    <mxGeometry x="-840" y="100" width="340" height="30" as="geometry"/>
                </mxCell>
            </root>
        </mxGraphModel>
    </diagram>
</mxfile>